# xmcd
#
# Track frame offsets:
#	150
#	19412
#	37543
#	69857
#	99326
#	136313
#	156249
#	187395
#	213639
#	233408
#
# Disc length: 3390 seconds
#
# Revision: 0
# Processed by: cddbd v1.5.1PL2 Copyright (c) Steve Scherf et al.
# Submitted via: MusicManager 7.3.0.0 
#
DISCID=7f0d3c0a
DTITLE=Trucks,Derek Band - Joyful noise
DYEAR=1900
DGENRE=blues
TTITLE0=Joyful noise
TTITLE1=So close, so far away
TTITLE2=Home in your heart(feat. Solomon Burke)
TTITLE3=Maki madni(feat. Rahat Nusrat Fatah Ali Khan)
TTITLE4=Kam-ma-lay(feat. Ruben Blades)
TTITLE5=Like anyone else(feat. Solomon Burke)
TTITLE6=Every good boy
TTITLE7=Baby, you're right(feat. Susan Tedeschi)
TTITLE8=Lookout 31
TTITLE9=Frisell
EXTD=
EXTT0=
EXTT1=
EXTT2=
EXTT3=
EXTT4=
EXTT5=
EXTT6=
EXTT7=
EXTT8=
EXTT9=
PLAYORDER=
